<?xml version="1.0" encoding="UTF-8" standalone="no"?>
<!-- Created with Inkscape (http://www.inkscape.org/) -->

<svg
   xmlns:dc="http://purl.org/dc/elements/1.1/"
   xmlns:cc="http://creativecommons.org/ns#"
   xmlns:rdf="http://www.w3.org/1999/02/22-rdf-syntax-ns#"
   xmlns:svg="http://www.w3.org/2000/svg"
   xmlns="http://www.w3.org/2000/svg"
   xmlns:sodipodi="http://sodipodi.sourceforge.net/DTD/sodipodi-0.dtd"
   xmlns:inkscape="http://www.inkscape.org/namespaces/inkscape"
   width="173.33333mm"
   height="53.333332mm"
   viewBox="0 0 129.99999 39.999998"
   version="1.1"
   id="svg8"
   inkscape:version="0.92.4 (5da689c313, 2019-01-14)"
   sodipodi:docname="boundingbox.svg">
  <defs
     id="defs2" />
  <sodipodi:namedview
     id="base"
     pagecolor="#ffffff"
     bordercolor="#666666"
     borderopacity="1.0"
     inkscape:pageopacity="0.0"
     inkscape:pageshadow="2"
     inkscape:zoom="0.98994949"
     inkscape:cx="319.57874"
     inkscape:cy="102.20674"
     inkscape:document-units="mm"
     inkscape:current-layer="layer1"
     showgrid="false"
     inkscape:window-width="1920"
     inkscape:window-height="1027"
     inkscape:window-x="1912"
     inkscape:window-y="-8"
     inkscape:window-maximized="1"
     fit-margin-top="0"
     fit-margin-left="0"
     fit-margin-right="0"
     fit-margin-bottom="0"
     scale-x="0.6" />
  <metadata
     id="metadata5">
    <rdf:RDF>
      <cc:Work
         rdf:about="">
        <dc:format>image/svg+xml</dc:format>
        <dc:type
           rdf:resource="http://purl.org/dc/dcmitype/StillImage" />
        <dc:title></dc:title>
      </cc:Work>
    </rdf:RDF>
  </metadata>
  <g
     inkscape:label="Layer 1"
     inkscape:groupmode="layer"
     id="layer1"
     transform="translate(-24.088797,-27.671631)">
    <rect
       style="fill:none;stroke:#0000fe;stroke-width:0.70746237;stroke-miterlimit:4;stroke-dasharray:none;stroke-opacity:1"
       id="rect815"
       width="39.292538"
       height="29.292538"
       x="24.442528"
       y="28.025362" />
    <rect
       style="fill:#cccccc;stroke:#ff0000;stroke-width:0.5;stroke-miterlimit:4;stroke-dasharray:1, 0.5;stroke-dashoffset:0;stroke-opacity:1"
       id="rect817"
       width="19.514174"
       height="14.514174"
       x="32.331711"
       y="39.914543" />
    <text
       xml:space="preserve"
       style="font-style:normal;font-weight:normal;font-size:10.58333302px;line-height:1.25;font-family:sans-serif;letter-spacing:0px;word-spacing:0px;fill:#000000;fill-opacity:1;stroke:none;stroke-width:0.26458332"
       x="41.95697"
       y="61.795208"
       id="text4580"><tspan
         sodipodi:role="line"
         id="tspan4578"
         x="41.95697"
         y="61.795208"
         style="font-size:2.82222223px;stroke-width:0.26458332">(a)</tspan></text>
    <rect
       style="fill:none;stroke:#0000fe;stroke-width:0.70746243;stroke-miterlimit:4;stroke-dasharray:none;stroke-opacity:1"
       id="rect815-7"
       width="39.292538"
       height="29.292538"
       x="69.442528"
       y="28.025362" />
    <path
       style="fill:#cccccc;fill-opacity:1;stroke:none;stroke-width:0.25948805px;stroke-linecap:butt;stroke-linejoin:miter;stroke-opacity:1"
       d="m 79.154351,34.998694 c 0.214758,-0.160886 0.664067,-0.401835 0.757104,-0.680635 0.0245,-0.07337 -0.04514,-0.159236 0,-0.22688 0.06384,-0.09566 0.22365,-0.13789 0.302842,-0.226878 0.028,-0.03147 -0.02256,-0.07961 0,-0.113444 0.03192,-0.04783 0.11949,-0.06561 0.151412,-0.113443 0.02256,-0.03382 -0.02256,-0.07963 0,-0.113444 0.03192,-0.04784 0.11949,-0.06561 0.151413,-0.113445 0.04514,-0.06763 -0.04514,-0.159235 0,-0.226877 0.06384,-0.09566 0.238996,-0.131217 0.302839,-0.226879 0.186473,-0.279396 -0.439533,0.102401 0.151428,-0.340319 0.03569,-0.02675 0.10095,0 0.151413,0 0.05045,-0.03781 0.111825,-0.06895 0.151412,-0.113444 0.06261,-0.07034 0.08881,-0.156525 0.151411,-0.226879 0.03959,-0.0445 0.11949,-0.06561 0.151413,-0.113444 0.02258,-0.03382 -0.03569,-0.0867 0,-0.113444 0.03569,-0.02675 0.10095,0 0.151412,0 0.05048,-0.03781 0.111825,-0.06895 0.151411,-0.113445 0.06261,-0.07036 0.07161,-0.167089 0.151413,-0.226877 0.03569,-0.02675 0.10095,0 0.151412,0 0.10095,-0.07561 0.223651,-0.13789 0.302841,-0.226879 0.02799,-0.03147 -0.03569,-0.0867 0,-0.113444 0.0798,-0.05978 0.208933,-0.06654 0.302838,-0.113445 0.0594,-0.02966 0.08757,-0.08953 0.151411,-0.113443 0.04515,-0.01691 0.10626,0.01691 0.151413,0 0.06384,-0.02392 0.08757,-0.08953 0.151428,-0.113444 0.04514,-0.01691 0.115725,0.02675 0.151412,0 0.03569,-0.02674 -0.04514,-0.09652 0,-0.113444 0.09028,-0.03381 0.207072,0.02392 0.302841,0 0.06772,-0.01691 0.08757,-0.08953 0.151428,-0.113445 0.09028,-0.03381 0.212548,0.03382 0.302839,0 0.06384,-0.02392 0.08217,-0.100472 0.151412,-0.113443 0.195864,-0.03668 0.403786,0 0.605679,0 0.555209,0 1.110415,0 1.665623,0 0.353316,0 0.706629,0 1.059944,0 0.10095,0 0.201897,0 0.302841,0 0.05048,0 0.10626,-0.01691 0.151413,0 0.06384,0.02392 0.08757,0.08953 0.151428,0.113443 0.06006,0.02249 0.423303,-0.02319 0.454261,0 0.0798,0.05978 0.07161,0.16709 0.151413,0.226879 0.03569,0.02675 0.10626,-0.01691 0.151428,0 0.06384,0.02392 0.08757,0.08953 0.151412,0.113444 0.04514,0.01691 0.115725,-0.02675 0.151413,0 0.03569,0.02674 -0.02256,0.07962 0,0.113443 0.07451,0.111626 0.531181,0.342132 0.605685,0.45376 0.02256,0.03382 -0.02258,0.07962 0,0.113444 0.03192,0.04782 0.12885,0.06271 0.151411,0.113444 0.03192,0.07175 -0.03192,0.155135 0,0.226878 0.04514,0.101459 0.238995,0.131222 0.30284,0.226881 0.04514,0.06763 -0.04514,0.159236 0,0.226879 0.09085,0.136126 0.363408,0.204191 0.454261,0.340317 0.02257,0.03382 -0.03569,0.0867 0,0.113445 0.03569,0.02674 0.115725,-0.02675 0.151411,0 0.07138,0.05348 -0.07139,0.173403 0,0.226881 0.0357,0.02674 0.10626,-0.01691 0.151413,0 0.127695,0.04783 0.175143,0.179046 0.30284,0.226877 0.04514,0.01691 0.10626,-0.01691 0.151413,0 0.06384,0.02392 0.0837,0.09652 0.151411,0.113445 0.09576,0.02392 0.207077,-0.02392 0.302844,0 0.06772,0.01691 0.0837,0.09652 0.151412,0.113443 0.09578,0.02392 0.204909,-0.01836 0.302844,0 0.218982,0.041 0.391537,0.173404 0.605679,0.226881 0.08195,0.02046 0.554097,0 0.605682,0 0.45426,0 0.908521,0 1.362781,0 0.119175,0 0.744945,0.0092 0.757104,0 0.03569,-0.02675 -0.03569,-0.0867 0,-0.113445 0.07139,-0.05348 0.21255,0.03382 0.302844,0 0.06382,-0.02392 0.08757,-0.08953 0.151411,-0.113443 0.04609,-0.01725 0.38607,0 0.45426,0 0.302843,0 0.605685,0 0.908526,0 0.07918,0 0.565866,-0.01491 0.605678,0 0.06384,0.02392 0.08757,0.08953 0.151411,0.113443 0.04514,0.01691 0.115725,-0.02674 0.151428,0 0.0357,0.02675 -0.02256,0.07961 0,0.113445 0.346494,0.519166 -0.06276,-0.481371 0.30284,0.340317 0.01593,0.03588 -0.02256,0.07963 0,0.113443 0.03192,0.04784 0.111825,0.06895 0.151411,0.113445 0.333603,0.05713 0.08002,0.233365 0.151413,0.340317 0.03192,0.04782 0.11949,0.06561 0.151412,0.113445 0.02256,0.03382 -0.01593,0.07756 0,0.113444 0.03569,0.08021 0.12405,0.14485 0.151411,0.226877 0.02451,0.07337 -0.03192,0.155133 0,0.226879 0.02258,0.05072 0.11949,0.06561 0.151428,0.113444 0.02258,0.03382 -0.02256,0.07962 0,0.113445 0.06384,0.09566 0.257696,0.125415 0.302841,0.226878 0.03192,0.07175 -0.03192,0.155134 0,0.226879 0.05797,0.130306 0.361511,0.15739 0.454261,0.226879 0.0357,0.02675 -0.0226,0.07962 0,0.113444 0.0319,0.04782 0.10095,0.07563 0.15141,0.113445 0.0505,0.03781 0.0876,0.08953 0.15141,0.113443 0.0451,0.01691 0.10629,-0.01691 0.15143,0 0.18171,0.06807 0.27256,0.272257 0.45426,0.340319 0.0451,0.01691 0.10626,-0.01691 0.15142,0 0.0638,0.02392 0.092,0.08377 0.15141,0.113445 0.0939,0.04689 0.22304,0.05364 0.30284,0.113431 0.0357,0.02674 -0.0357,0.0867 0,0.113444 0.0357,0.02674 0.10626,-0.01691 0.15141,0 0.0402,0.01506 0.43416,0.3102 0.45426,0.340319 0.0226,0.03382 -0.0226,0.07961 0,0.113444 0.0638,0.09566 0.239,0.131219 0.30284,0.226881 0.0226,0.03382 -0.0226,0.07961 0,0.113444 0.0638,0.09566 0.239,0.131217 0.30284,0.226879 0.0231,0.03453 0,0.28923 0,0.340317 0,0.264694 0,0.529385 0,0.794076 0,0.02751 0.005,0.336671 0,0.340321 -0.0357,0.02675 -0.11572,-0.02674 -0.15141,0 -0.0714,0.05348 0.0451,0.159234 0,0.226878 -0.0319,0.04783 -0.11949,0.06561 -0.15141,0.113443 -0.0226,0.03382 0.0226,0.07961 0,0.113432 -0.0319,0.04782 -0.11949,0.06561 -0.15141,0.113443 -0.0226,0.03382 0.0159,0.07757 0,0.113445 -0.0357,0.08021 -0.11573,0.146663 -0.15142,0.226878 -0.0319,0.07175 0.0714,0.173404 0,0.226879 -0.0357,0.02674 -0.12885,-0.03382 -0.15142,0 -0.0452,0.06763 0.0319,0.155132 0,0.226878 -0.0226,0.05072 -0.11949,0.06561 -0.15143,0.113444 -0.0226,0.03381 0.0226,0.07961 0,0.113444 -0.0319,0.04783 -0.11949,0.06561 -0.15141,0.113444 -0.0451,0.06764 0.0714,0.173406 0,0.226879 -0.0357,0.02675 -0.11573,-0.02675 -0.15143,0 -0.0357,0.02675 0,0.07562 0,0.113445 -0.10095,0.07561 -0.17515,0.179046 -0.30284,0.226877 -0.0903,0.03382 -0.20708,-0.02392 -0.30284,0 -0.0677,0.01691 -0.0837,0.09654 -0.15141,0.113444 -0.0958,0.02392 -0.20386,-0.01483 -0.30285,0 -0.15651,0.02346 -0.30606,0.06904 -0.45426,0.113444 -0.1048,0.03139 -0.19216,0.09686 -0.30284,0.113444 -0.148466,0.02226 -0.302836,0 -0.454258,0 -0.05044,0 -0.10353,-0.01195 -0.151411,0 -0.10707,0.02674 -0.195771,0.0867 -0.30284,0.113445 -0.08544,0.02133 -0.354762,0 -0.454261,0 -0.454265,0 -0.908522,0 -1.362782,0 -0.157458,0 -0.789414,0.0223 -0.908524,0 -0.218984,-0.04102 -0.391539,-0.173405 -0.605682,-0.22688 -0.04788,-0.01195 -0.10095,0 -0.151428,0 -0.225379,0 -0.193273,0.01691 -0.454261,-0.113443 -0.0594,-0.02966 -0.10095,-0.07562 -0.151413,-0.113445 -0.164808,-0.123469 -0.436377,-0.3692 -0.605681,-0.453756 -0.042,-0.02098 -0.10626,0.01691 -0.151411,0 -0.127695,-0.04784 -0.184058,-0.167555 -0.30284,-0.22688 -0.09392,-0.04689 -0.223038,-0.05365 -0.302839,-0.113443 -0.03569,-0.02674 0.03569,-0.0867 0,-0.113444 -0.03569,-0.02675 -0.115725,0.02675 -0.151413,0 -0.313293,-0.23471 0.478755,0.0092 -0.151412,-0.226878 -0.04514,-0.01691 -0.115725,0.02675 -0.151428,0 -0.03569,-0.02674 0.02256,-0.07961 0,-0.113444 -0.02708,-0.04057 -0.542709,-0.422305 -0.60568,-0.453757 -0.09391,-0.0469 -0.223035,-0.05365 -0.302841,-0.113444 -0.03569,-0.02674 0.03569,-0.0867 0,-0.113432 -0.03569,-0.02675 -0.115725,0.02674 -0.151412,0 -0.03569,-0.02675 0.03569,-0.0867 0,-0.113444 -0.03569,-0.02675 -0.115725,0.02674 -0.151411,0 -0.0357,-0.02675 0.03568,-0.0867 0,-0.113444 -0.07139,-0.05348 -0.212555,0.03382 -0.302844,0 -0.06382,-0.02392 -0.08757,-0.08953 -0.151412,-0.113443 -0.09029,-0.03382 -0.23146,0.05348 -0.302839,0 -0.03569,-0.02674 0.03569,-0.0867 0,-0.113444 -0.03569,-0.02675 -0.10095,0 -0.151412,0 -0.03674,0 -0.449393,-0.0037 -0.454262,0 -0.03569,0.02674 0.04513,0.09652 0,0.113444 -0.09029,0.03382 -0.207072,-0.02392 -0.30284,0 -0.06773,0.01691 -0.09203,0.08377 -0.151411,0.113443 -0.09391,0.04689 -0.223035,0.05365 -0.302841,0.113444 -0.313293,0.234711 0.478755,-0.0092 -0.151412,0.226879 -0.04514,0.01691 -0.10626,-0.01691 -0.151413,0 -0.04018,0.01505 -0.43416,0.310201 -0.454261,0.340319 -0.02256,0.03382 0.03569,0.0867 0,0.113443 -0.0798,0.05978 -0.223037,0.05365 -0.302841,0.113445 -0.03569,0.02674 0.0357,0.0867 0,0.113444 -0.03569,0.02674 -0.115725,-0.02675 -0.151412,0 -0.03569,0.02674 0.02256,0.07961 0,0.113444 -0.09085,0.136127 -0.363409,0.204189 -0.454263,0.340319 -0.06055,0.09075 0.06055,0.249564 0,0.340315 -0.03192,0.04783 -0.12885,0.06271 -0.151413,0.113444 -0.03192,0.07175 0.04515,0.159238 0,0.226879 -0.02257,0.03382 -0.115725,-0.02674 -0.151428,0 -0.07138,0.05348 0.07139,0.173404 0,0.22688 -0.03569,0.02674 -0.115725,-0.02674 -0.151411,0 -0.0357,0.02674 0.02258,0.07961 0,0.113444 -0.03192,0.04784 -0.11949,0.06561 -0.151413,0.113443 -0.08103,0.121435 0.131115,0.24209 -0.151412,0.453759 -0.03569,0.02675 -0.12885,-0.03382 -0.151411,0 -0.06772,0.101459 0.06773,0.238855 0,0.340317 -0.06384,0.09566 -0.238995,0.131221 -0.30284,0.226878 -0.04514,0.06764 0.04514,0.159239 0,0.226882 -0.31509,0.472105 0.01035,-0.121268 -0.302841,0.113443 -0.03569,0.02674 0.03569,0.0867 0,0.113445 -0.03569,0.02674 -0.115725,-0.02675 -0.151413,0 -0.03569,0.02674 0.0357,0.0867 0,0.113444 -0.07138,0.05348 -0.212548,-0.03382 -0.302838,0 -0.06384,0.02392 -0.08757,0.08953 -0.151413,0.113444 -0.04514,0.01691 -0.115725,-0.02675 -0.151411,0 -0.03569,0.02674 0.03569,0.0867 0,0.113445 -0.07139,0.05348 -0.231462,-0.05348 -0.302844,0 -0.03569,0.02674 0.03569,0.0867 0,0.113443 -0.03569,0.02674 -0.10626,-0.01691 -0.151412,0 -0.06383,0.02392 -0.08757,0.08953 -0.151427,0.113444 -0.04514,0.01691 -0.10626,-0.01691 -0.151412,0 -0.06382,0.02392 -0.0837,0.09652 -0.151413,0.113444 -0.09576,0.02392 -0.207075,-0.02392 -0.302839,0 -0.06772,0.01691 -0.08757,0.08953 -0.151413,0.113445 -0.04514,0.01691 -0.10626,-0.01691 -0.151412,0 -0.692989,0.259583 0.642539,-0.04703 -0.454261,0.22688 -0.12972,0.03239 -0.472092,-0.02502 -0.605679,0 -0.1095,0.02051 -0.19335,0.09293 -0.302841,0.113443 -0.09792,0.01836 -0.207077,-0.02392 -0.302844,0 -0.06772,0.01691 -0.0837,0.09654 -0.151412,0.113444 -0.183187,0.04575 -0.702268,-0.03864 -0.908521,0 -0.1095,0.02051 -0.19217,0.09686 -0.302841,0.113444 -0.14847,0.02226 -0.307364,-0.02751 -0.45426,0 -0.06925,0.01296 -0.08757,0.08953 -0.151413,0.113445 -0.04825,0.01807 -0.621771,0 -0.757101,0 -0.60568,0 -1.211364,0 -1.817043,0 -0.302844,0 -0.605683,0 -0.908524,0 -0.09949,0 -0.368831,0.02135 -0.454262,0 -0.10707,-0.02674 -0.208935,-0.06654 -0.302839,-0.113445 -0.0594,-0.02966 -0.0837,-0.09652 -0.151412,-0.113444 -0.09577,-0.02392 -0.207073,0.02392 -0.302841,0 -0.135435,-0.03382 -0.167398,-0.193058 -0.302839,-0.226879 -0.09576,-0.02392 -0.207077,0.02392 -0.302844,0 -0.06772,-0.01691 -0.10095,-0.07561 -0.151412,-0.113444 -0.05044,-0.03782 -0.11949,-0.06561 -0.151411,-0.113444 -0.02258,-0.03382 0.03569,-0.0867 0,-0.113443 -0.313293,-0.23471 0.01215,0.358668 -0.30284,-0.113445 -0.02256,-0.03382 0.03569,-0.0867 0,-0.113443 -0.03569,-0.02674 -0.106259,0.01691 -0.151411,0 -0.06384,-0.02392 -0.10095,-0.07562 -0.151411,-0.113444 -0.05049,-0.03781 -0.111825,-0.06895 -0.151413,-0.113445 -0.06261,-0.07036 -0.08882,-0.156527 -0.151412,-0.226877 -0.0792,-0.089 -0.238996,-0.13122 -0.302841,-0.226879 -0.02258,-0.03382 0.0357,-0.0867 0,-0.113444 -0.03569,-0.02675 -0.12885,0.03382 -0.151411,0 -0.04514,-0.06764 0.03192,-0.155133 0,-0.226879 -0.02256,-0.05072 -0.11949,-0.06561 -0.151412,-0.113444 -0.04513,-0.06764 0.04514,-0.159236 0,-0.226878 -0.03192,-0.04783 -0.119505,-0.06561 -0.151413,-0.113444 -0.04514,-0.06764 0.04514,-0.159235 0,-0.226879 -0.03192,-0.04783 -0.11949,-0.06561 -0.151428,-0.113444 -0.02256,-0.03382 0.03568,-0.0867 0,-0.113445 -0.03569,-0.02674 -0.12885,0.03382 -0.151411,0 -0.04514,-0.06764 0.03192,-0.155133 0,-0.226878 -0.02256,-0.05072 -0.11949,-0.06561 -0.151413,-0.113445 -0.01989,-0.02983 0,-0.394437 0,-0.453759 0,-0.05932 -0.01989,-0.42393 0,-0.453756 0.09085,-0.136127 0.363411,-0.204192 0.454263,-0.340319 0.02256,-0.03382 -0.03569,-0.0867 0,-0.113444 0.03569,-0.02675 0.115725,0.02674 0.151411,0 0.03569,-0.02675 -0.03569,-0.0867 0,-0.113444 0.313293,-0.234709 -0.01215,0.358669 0.30284,-0.113443 0.02256,-0.03382 -0.04514,-0.09652 0,-0.113432 0.0903,-0.03382 0.204907,0.01835 0.302839,0 0.218987,-0.04102 0.391542,-0.173404 0.605683,-0.226881 0.04788,-0.01195 0.10353,0.01195 0.151413,0 0.10707,-0.02675 0.19335,-0.09293 0.302841,-0.113431 0.195866,-0.03669 0.409815,0.03668 0.605681,0 0.218985,-0.04102 0.386695,-0.185867 0.605685,-0.226881 0.13725,-0.0257 0.581202,0 0.757101,0 0.05049,0 0.10353,0.01195 0.151413,0 0.10707,-0.02674 0.193348,-0.09293 0.302844,-0.113444 0.0051,-9.34e-4 0.453453,6.74e-4 0.45426,0 0.03568,-0.02674 -0.03569,-0.0867 0,-0.113444 0.07138,-0.05347 0.212548,0.03382 0.302839,0 0.06384,-0.02392 0.08757,-0.08953 0.151413,-0.113445 0.09028,-0.03382 0.212552,0.03382 0.302843,0 0.06384,-0.02392 0.08757,-0.08953 0.151413,-0.113443 0.04514,-0.01691 0.115725,0.02674 0.151411,0 0.03569,-0.02674 -0.03569,-0.0867 0,-0.113444 0.03569,-0.02675 0.115725,0.02674 0.151412,0 0.03569,-0.02675 -0.02257,-0.07961 0,-0.113445 0.03192,-0.04783 0.10095,-0.07561 0.151413,-0.113444 0.05044,-0.03781 0.08757,-0.08953 0.151411,-0.113444 0.04515,-0.01691 0.115725,0.02674 0.151413,0 0.03569,-0.02675 -0.02256,-0.07961 0,-0.113444 0.03192,-0.04783 0.11949,-0.06561 0.151428,-0.113444 0.04514,-0.06763 -0.04515,-0.159235 0,-0.226878 0.03192,-0.04782 0.11949,-0.06561 0.151411,-0.113444 0.04513,-0.06763 -0.04514,-0.159236 0,-0.226877 0.03192,-0.04784 0.12885,-0.06271 0.151412,-0.113445 0.01275,-0.02829 -0.0156,-0.555511 0,-0.567197 0.03569,-0.02675 0.115725,0.02674 0.151413,0 0.03569,-0.02675 0,-0.07562 0,-0.113444 0,-0.302504 0,-0.60501 0,-0.907515 0,-0.04166 0.0061,-0.449192 0,-0.45376 -0.07139,-0.05347 -0.231461,0.05348 -0.30284,0 -0.03569,-0.02674 0.0357,-0.0867 0,-0.113444 -0.03569,-0.02674 -0.115724,0.02674 -0.151411,0 -0.03569,-0.02674 0.03569,-0.0867 0,-0.113444 -0.03569,-0.02675 -0.115725,0.02674 -0.151428,0 -0.03569,-0.02675 0.02256,-0.07961 0,-0.113444 -0.06382,-0.09566 -0.238995,-0.131218 -0.302842,-0.226877 -0.02256,-0.03382 0.02258,-0.07962 0,-0.113445 -0.03192,-0.04783 -0.114675,-0.06759 -0.151412,-0.113444 -0.11613,-0.145007 -0.201894,-0.302505 -0.302844,-0.453759 z"
       id="path839"
       inkscape:connector-curvature="0" />
    <rect
       style="fill:none;fill-opacity:1;stroke:#ff0000;stroke-width:0.5;stroke-miterlimit:4;stroke-dasharray:1, 0.5;stroke-dashoffset:0;stroke-opacity:1"
       id="rect841"
       width="29.384935"
       height="14.384936"
       x="73.396324"
       y="30.979162" />
    <text
       xml:space="preserve"
       style="font-style:normal;font-weight:normal;font-size:10.58333302px;line-height:1.25;font-family:sans-serif;letter-spacing:0px;word-spacing:0px;fill:#000000;fill-opacity:1;stroke:none;stroke-width:0.26458332"
       x="86.926651"
       y="61.795208"
       id="text4580-5"><tspan
         sodipodi:role="line"
         id="tspan4578-0"
         x="86.926651"
         y="61.795208"
         style="font-size:2.82222223px;stroke-width:0.26458332">(b)</tspan></text>
    <rect
       style="fill:none;stroke:#0000fe;stroke-width:0.70746243;stroke-miterlimit:4;stroke-dasharray:none;stroke-opacity:1"
       id="rect815-7-8"
       width="39.292538"
       height="29.292538"
       x="114.44253"
       y="28.025362" />
    <path
       style="fill:none;stroke:#cccccc;stroke-width:1.31531405;stroke-linecap:butt;stroke-linejoin:miter;stroke-miterlimit:4;stroke-dasharray:none;stroke-opacity:1"
       d="m 126.61793,34.08481 10.88918,17.235554"
       id="path4561"
       inkscape:connector-curvature="0" />
    <rect
       style="fill:none;fill-opacity:1;stroke:#ff0000;stroke-width:0.42663997;stroke-miterlimit:4;stroke-dasharray:0.85327992, 0.42663996;stroke-dashoffset:0;stroke-opacity:1"
       id="rect841-8"
       width="11.573359"
       height="17.57336"
       x="126.30211"
       y="33.884949" />
    <text
       xml:space="preserve"
       style="font-style:normal;font-weight:normal;font-size:10.58333302px;line-height:1.25;font-family:sans-serif;letter-spacing:0px;word-spacing:0px;fill:#000000;fill-opacity:1;stroke:none;stroke-width:0.26458332"
       x="132.06998"
       y="61.795208"
       id="text4580-6"><tspan
         sodipodi:role="line"
         id="tspan4578-6"
         x="132.06998"
         y="61.795208"
         style="font-size:2.82222223px;stroke-width:0.26458332">(c)</tspan></text>
    <g
       id="g4692"
       transform="translate(2.6994765)">
      <g
         transform="translate(7.4835468,0.07405528)"
         id="g4678">
        <rect
           style="fill:none;fill-opacity:1;stroke:#0000ff;stroke-width:0.27559954;stroke-miterlimit:4;stroke-dasharray:none;stroke-dashoffset:0;stroke-opacity:1"
           id="rect4628"
           width="2.7244005"
           height="2.7244005"
           x="30.356522"
           y="64.669632" />
        <text
           xml:space="preserve"
           style="font-style:normal;font-weight:normal;font-size:10.58333302px;line-height:1.25;font-family:sans-serif;letter-spacing:0px;word-spacing:0px;fill:#000000;fill-opacity:1;stroke:none;stroke-width:0.26458332"
           x="34.210499"
           y="67.014565"
           id="text4632"><tspan
             sodipodi:role="line"
             id="tspan4630"
             x="34.210499"
             y="67.014565"
             style="font-size:2.82222223px;stroke-width:0.26458332">Electron image</tspan></text>
      </g>
      <g
         transform="translate(12.582162,-0.00174599)"
         id="g4673">
        <rect
           style="fill:#cccccc;fill-opacity:1;stroke:none;stroke-width:0.27559954;stroke-miterlimit:4;stroke-dasharray:none;stroke-dashoffset:0;stroke-opacity:1"
           id="rect4628-8"
           width="2.7244005"
           height="2.7244005"
           x="61.115578"
           y="64.684113" />
        <text
           xml:space="preserve"
           style="font-style:normal;font-weight:normal;font-size:10.58333302px;line-height:1.25;font-family:sans-serif;letter-spacing:0px;word-spacing:0px;fill:#000000;fill-opacity:1;stroke:none;stroke-width:0.26458332"
           x="64.969551"
           y="67.029045"
           id="text4632-1"><tspan
             sodipodi:role="line"
             id="tspan4630-7"
             x="64.969551"
             y="67.029045"
             style="font-size:2.82222223px;stroke-width:0.26458332">Acquisition area</tspan></text>
      </g>
      <g
         transform="translate(40.491334,-10.898371)"
         id="g4668">
        <rect
           style="fill:none;fill-opacity:1;stroke:#ff0000;stroke-width:0.27599999;stroke-miterlimit:4;stroke-dasharray:0.552, 0.276;stroke-dashoffset:0;stroke-opacity:1"
           id="rect4628-1"
           width="2.7244005"
           height="2.7244005"
           x="71.405449"
           y="75.642159" />
        <text
           xml:space="preserve"
           style="font-style:normal;font-weight:normal;font-size:10.58333302px;line-height:1.25;font-family:sans-serif;letter-spacing:0px;word-spacing:0px;fill:#000000;fill-opacity:1;stroke:none;stroke-width:0.26458332"
           x="75.25943"
           y="77.987091"
           id="text4632-2"><tspan
             sodipodi:role="line"
             id="tspan4630-76"
             x="75.25943"
             y="77.987091"
             style="font-size:2.82222223px;stroke-width:0.26458332">Bounding box</tspan></text>
      </g>
    </g>
    <text
       xml:space="preserve"
       style="font-style:normal;font-weight:normal;font-size:10.58333302px;line-height:1.25;font-family:sans-serif;letter-spacing:0px;word-spacing:0px;fill:#000000;fill-opacity:1;stroke:none;stroke-width:0.26458332"
       x="27.162395"
       y="38.405617"
       id="text6212"><tspan
         sodipodi:role="line"
         id="tspan6210"
         x="27.162395"
         y="38.405617"
         style="font-size:2.11666656px;stroke-width:0.26458332">(0.2, 0.4)</tspan></text>
    <text
       xml:space="preserve"
       style="font-style:normal;font-weight:normal;font-size:10.58333302px;line-height:1.25;font-family:sans-serif;letter-spacing:0px;word-spacing:0px;fill:#000000;fill-opacity:1;stroke:none;stroke-width:0.26458332"
       x="40.361771"
       y="53.372711"
       id="text6493"><tspan
         sodipodi:role="line"
         id="tspan6491"
         x="40.361771"
         y="53.372711"
         style="font-size:2.11666656px;stroke-width:0.26458332">0.5</tspan></text>
    <text
       xml:space="preserve"
       style="font-style:normal;font-weight:normal;font-size:10.58333302px;line-height:1.25;font-family:sans-serif;letter-spacing:0px;word-spacing:0px;fill:#000000;fill-opacity:1;stroke:none;stroke-width:0.26458332"
       x="45.444603"
       y="-33.21978"
       id="text6493-4"
       transform="rotate(90)"><tspan
         sodipodi:role="line"
         id="tspan6491-9"
         x="45.444603"
         y="-33.21978"
         style="font-size:2.11666656px;stroke-width:0.26458332">0.5</tspan></text>
    <text
       xml:space="preserve"
       style="font-style:normal;font-weight:normal;font-size:10.58333302px;line-height:1.25;font-family:sans-serif;letter-spacing:0px;word-spacing:0px;fill:#000000;fill-opacity:1;stroke:none;stroke-width:0.26458332"
       x="69.954132"
       y="30.176901"
       id="text6212-3"><tspan
         sodipodi:role="line"
         id="tspan6210-4"
         x="69.954132"
         y="30.176901"
         style="font-size:2.11666656px;stroke-width:0.26458332">(0.1, 0.1)</tspan></text>
    <text
       xml:space="preserve"
       style="font-style:normal;font-weight:normal;font-size:10.58333302px;line-height:1.25;font-family:sans-serif;letter-spacing:0px;word-spacing:0px;fill:#000000;fill-opacity:1;stroke:none;stroke-width:0.26458332"
       x="85.687904"
       y="44.386318"
       id="text6493-7"><tspan
         sodipodi:role="line"
         id="tspan6491-4"
         x="85.687904"
         y="44.386318"
         style="font-size:2.11666656px;stroke-width:0.26458332">0.75</tspan></text>
    <text
       xml:space="preserve"
       style="font-style:normal;font-weight:normal;font-size:10.58333302px;line-height:1.25;font-family:sans-serif;letter-spacing:0px;word-spacing:0px;fill:#000000;fill-opacity:1;stroke:none;stroke-width:0.26458332"
       x="36.444603"
       y="-74.240074"
       id="text6493-4-4"
       transform="rotate(90)"><tspan
         sodipodi:role="line"
         id="tspan6491-9-4"
         x="36.444603"
         y="-74.240074"
         style="font-size:2.11666656px;stroke-width:0.26458332">0.5</tspan></text>
    <text
       xml:space="preserve"
       style="font-style:normal;font-weight:normal;font-size:10.58333302px;line-height:1.25;font-family:sans-serif;letter-spacing:0px;word-spacing:0px;fill:#000000;fill-opacity:1;stroke:none;stroke-width:0.26458332"
       x="120.46806"
       y="32.582325"
       id="text6212-3-9"><tspan
         sodipodi:role="line"
         id="tspan6210-4-9"
         x="120.46806"
         y="32.582325"
         style="font-size:2.11666656px;stroke-width:0.26458332">(0.3, 0.2)</tspan></text>
    <text
       xml:space="preserve"
       style="font-style:normal;font-weight:normal;font-size:10.58333302px;line-height:1.25;font-family:sans-serif;letter-spacing:0px;word-spacing:0px;fill:#000000;fill-opacity:1;stroke:none;stroke-width:0.26458332"
       x="130.36641"
       y="50.533516"
       id="text6493-7-8"><tspan
         sodipodi:role="line"
         id="tspan6491-4-0"
         x="130.36641"
         y="50.533516"
         style="font-size:2.11666656px;stroke-width:0.26458332">0.3</tspan></text>
    <text
       xml:space="preserve"
       style="font-style:normal;font-weight:normal;font-size:10.58333302px;line-height:1.25;font-family:sans-serif;letter-spacing:0px;word-spacing:0px;fill:#000000;fill-opacity:1;stroke:none;stroke-width:0.26458332"
       x="40.927032"
       y="-127.2877"
       id="text6493-4-4-6"
       transform="rotate(90)"><tspan
         sodipodi:role="line"
         id="tspan6491-9-4-9"
         x="40.927032"
         y="-127.2877"
         style="font-size:2.11666656px;stroke-width:0.26458332">0.6</tspan></text>
  </g>
</svg>
